<svg xmlns="http://www.w3.org/2000/svg"  viewBox="0 0 64 64" width="64px" height="64px"><path fill="#acb7d0" d="M51,7H13c-3.314,0-6,2.686-6,6v38c0,3.314,2.686,6,6,6h38c3.314,0,6-2.686,6-6V13	C57,9.686,54.314,7,51,7z"/><path fill="#c2cde7" d="M54,50H10c-1.657,0-3,1.343-3,3v0c0,2.209,1.791,4,4,4h42c2.209,0,4-1.791,4-4v0	C57,51.343,55.657,50,54,50z"/><path fill="#8d6c9f" d="M58,51V13c0-3.86-3.141-7-7-7H13c-3.859,0-7,3.14-7,7v38c0,3.86,3.141,7,7,7h38	C54.859,58,58,54.86,58,51z M56,51c0,2.757-2.243,5-5,5H13c-2.757,0-5-2.243-5-5V13c0-2.757,2.243-5,5-5h38c2.757,0,5,2.243,5,5V51z"/><path fill="#8d6c9f" d="M17,48c0.553,0,1,0.448,1,1v2c0,0.552-0.447,1-1,1s-1-0.448-1-1v-2C16,48.448,16.447,48,17,48z"/><path fill="#8d6c9f" d="M12,52c-0.553,0-1-0.448-1-1v-2c0-0.552,0.447-1,1-1s1,0.448,1,1v2C13,51.552,12.553,52,12,52z"/><path fill="#8d6c9f" d="M32,48c0.553,0,1,0.448,1,1v2c0,0.552-0.447,1-1,1s-1-0.448-1-1v-2C31,48.448,31.447,48,32,48z"/><path fill="#8d6c9f" d="M37,48c0.553,0,1,0.448,1,1v2c0,0.552-0.447,1-1,1s-1-0.448-1-1v-2C36,48.448,36.447,48,37,48z"/><path fill="#8d6c9f" d="M42,48c0.553,0,1,0.448,1,1v2c0,0.552-0.447,1-1,1s-1-0.448-1-1v-2C41,48.448,41.447,48,42,48z"/><path fill="#8d6c9f" d="M47,48c0.553,0,1,0.448,1,1v2c0,0.552-0.447,1-1,1s-1-0.448-1-1v-2C46,48.448,46.447,48,47,48z"/><path fill="#8d6c9f" d="M52,52c-0.553,0-1-0.448-1-1v-2c0-0.552,0.447-1,1-1s1,0.448,1,1v2C53,51.552,52.553,52,52,52z"/><path fill="#8d6c9f" d="M22,48c0.553,0,1,0.448,1,1v2c0,0.552-0.447,1-1,1s-1-0.448-1-1v-2C21,48.448,21.447,48,22,48z"/><path fill="#8d6c9f" d="M27,48c0.553,0,1,0.448,1,1v2c0,0.552-0.447,1-1,1s-1-0.448-1-1v-2C26,48.448,26.447,48,27,48z"/><path fill="#85cbf8" d="M19.707,33.898l9.001,7.604c1.895,1.6,4.69,1.6,6.585,0l9.001-7.604	c0.969-0.818,0.937-2.306-0.067-3.083l-9.101-7.048c-1.834-1.421-4.417-1.421-6.251,0l-9.101,7.048	C18.77,31.592,18.738,33.079,19.707,33.898z"/><path fill="#f283a5" d="M19.707,24.196l9.001,7.604c1.895,1.6,4.69,1.6,6.585,0l9.001-7.604 c0.969-0.818,0.937-2.306-0.067-3.083l-9.101-7.048c-1.834-1.421-4.417-1.421-6.251,0l-9.101,7.048 C18.77,21.89,18.738,23.377,19.707,24.196z"/><path fill="#8d6c9f" d="M32,34.009c-1.398,0-2.797-0.481-3.938-1.445l-9.001-7.604l0,0c-0.694-0.587-1.08-1.441-1.061-2.344 s0.442-1.738,1.161-2.294l9.101-7.048c2.202-1.705,5.275-1.706,7.476,0.001l9.101,7.047c0.718,0.556,1.142,1.393,1.161,2.296 c0.02,0.902-0.367,1.756-1.061,2.342l-9.001,7.604C34.797,33.527,33.398,34.009,32,34.009z M20.353,23.433l9.001,7.604 c1.534,1.295,3.762,1.294,5.294,0l9.001-7.604c0.314-0.266,0.355-0.598,0.352-0.771s-0.059-0.504-0.385-0.757l-9.102-7.048 c-1.48-1.148-3.546-1.148-5.026-0.001l-9.102,7.049c-0.326,0.252-0.382,0.581-0.386,0.755 C19.996,22.834,20.037,23.166,20.353,23.433L20.353,23.433z"/><path fill="#8d6c9f" d="M32,44.009c-1.398,0-2.797-0.481-3.938-1.445l-9.001-7.604c-0.694-0.587-1.08-1.441-1.061-2.344 s0.442-1.738,1.161-2.294l3.886-3.01c0.438-0.337,1.064-0.259,1.403,0.179c0.338,0.437,0.258,1.064-0.179,1.403l-3.887,3.01 c-0.326,0.252-0.382,0.581-0.386,0.755c-0.004,0.175,0.037,0.507,0.353,0.773l9.001,7.604c1.534,1.295,3.762,1.294,5.294,0 l9.001-7.604c0.314-0.266,0.355-0.598,0.352-0.771s-0.059-0.504-0.385-0.757l-9.102-7.048c-1.48-1.147-3.546-1.148-5.026-0.001 l-1.342,1.039c-0.438,0.338-1.065,0.257-1.403-0.179c-0.338-0.438-0.258-1.065,0.179-1.403l1.342-1.038 c2.202-1.705,5.275-1.706,7.476,0.001l9.101,7.047c0.718,0.556,1.142,1.393,1.161,2.296c0.02,0.902-0.367,1.756-1.061,2.342 l-9.001,7.604C34.797,43.527,33.398,44.009,32,44.009z"/></svg>